<svg width="503.764893" height="258.000000" viewBox="0 0 503.765 258" fill="none" xmlns="http://www.w3.org/2000/svg" xmlns:xlink="http://www.w3.org/1999/xlink">
	<desc>
			Created with Pixso.
	</desc>
	<defs/>
	<line id="Line" x1="1.500000" y1="34.500000" x2="440.981812" y2="34.500000" stroke="#8E8E93" stroke-opacity="1.000000" stroke-width="1.000000" stroke-dasharray="8.000000,8.000000"/>
	<line id="Line" x1="1.500000" y1="98.500000" x2="439.673828" y2="98.500000" stroke="#8E8E93" stroke-opacity="1.000000" stroke-width="1.000000" stroke-dasharray="8.000000,8.000000"/>
	<line id="Line" x1="6.731934" y1="170.500000" x2="437.057861" y2="170.500000" stroke="#8E8E93" stroke-opacity="1.000000" stroke-width="1.000000" stroke-dasharray="8.000000,8.000000"/>
	<path id="707" d="M459.735 29.4375L455.024 40L453.508 40L458.203 29.8125L452.047 29.8125L452.047 28.625L459.735 28.625L459.735 29.4375ZM468.668 35.1484Q468.668 37.6875 467.801 38.9219Q466.934 40.1562 465.09 40.1562Q463.27 40.1562 462.395 38.9492Q461.52 37.7422 461.488 35.3438L461.488 33.4141Q461.488 30.9062 462.356 29.6875Q463.223 28.4688 465.074 28.4688Q466.91 28.4688 467.778 29.6445Q468.645 30.8203 468.668 33.2734L468.668 35.1484ZM467.223 33.1719Q467.223 31.3359 466.707 30.4961Q466.192 29.6562 465.074 29.6562Q463.965 29.6562 463.457 30.4922Q462.949 31.3281 462.934 33.0625L462.934 35.375Q462.934 37.2188 463.469 38.0977Q464.004 38.9766 465.09 38.9766Q466.16 38.9766 466.68 38.1484Q467.199 37.3203 467.223 35.5391L467.223 33.1719ZM478.023 29.4375L473.313 40L471.797 40L476.492 29.8125L470.336 29.8125L470.336 28.625L478.023 28.625L478.023 29.4375Z" fill="#4F4F4F" fill-opacity="1.000000" fill-rule="evenodd"/>
	<path id="400" d="M458.493 100.18L460.071 100.18L460.071 101.359L458.493 101.359L458.493 104L457.039 104L457.039 101.359L451.86 101.359L451.86 100.508L456.953 92.625L458.493 92.625L458.493 100.18ZM453.5 100.18L457.039 100.18L457.039 94.6016L456.868 94.9141L453.5 100.18ZM468.668 99.1484Q468.668 101.688 467.801 102.922Q466.934 104.156 465.09 104.156Q463.27 104.156 462.395 102.949Q461.52 101.742 461.488 99.3438L461.488 97.4141Q461.488 94.9062 462.356 93.6875Q463.223 92.4688 465.074 92.4688Q466.91 92.4688 467.778 93.6445Q468.645 94.8203 468.668 97.2734L468.668 99.1484ZM467.223 97.1719Q467.223 95.3359 466.707 94.4961Q466.192 93.6562 465.074 93.6562Q463.965 93.6562 463.457 94.4922Q462.949 95.3281 462.934 97.0625L462.934 99.375Q462.934 101.219 463.469 102.098Q464.004 102.977 465.09 102.977Q466.16 102.977 466.68 102.148Q467.199 101.32 467.223 99.5391L467.223 97.1719ZM477.813 99.1484Q477.813 101.688 476.945 102.922Q476.078 104.156 474.234 104.156Q472.414 104.156 471.539 102.949Q470.664 101.742 470.633 99.3438L470.633 97.4141Q470.633 94.9062 471.5 93.6875Q472.367 92.4688 474.219 92.4688Q476.055 92.4688 476.922 93.6445Q477.789 94.8203 477.813 97.2734L477.813 99.1484ZM476.367 97.1719Q476.367 95.3359 475.852 94.4961Q475.336 93.6562 474.219 93.6562Q473.109 93.6562 472.602 94.4922Q472.094 95.3281 472.078 97.0625L472.078 99.375Q472.078 101.219 472.613 102.098Q473.148 102.977 474.234 102.977Q475.305 102.977 475.824 102.148Q476.344 101.32 476.367 99.5391L476.367 97.1719Z" fill="#4F4F4F" fill-opacity="1.000000" fill-rule="evenodd"/>
	<path id="2019" d="M57.4292 254L49.9761 254L49.9761 252.961L53.9136 248.586Q54.7886 247.594 55.1206 246.973Q55.4526 246.352 55.4526 245.688Q55.4526 244.797 54.9136 244.227Q54.3745 243.656 53.4761 243.656Q52.3979 243.656 51.8003 244.27Q51.2026 244.883 51.2026 245.977L49.7573 245.977Q49.7573 244.406 50.769 243.438Q51.7808 242.469 53.4761 242.469Q55.062 242.469 55.9839 243.301Q56.9058 244.133 56.9058 245.516Q56.9058 247.195 54.7651 249.516L51.7183 252.82L57.4292 252.82L57.4292 254ZM66.2533 249.148Q66.2533 251.688 65.3861 252.922Q64.5189 254.156 62.6751 254.156Q60.8548 254.156 59.9798 252.949Q59.1048 251.742 59.0736 249.344L59.0736 247.414Q59.0736 244.906 59.9408 243.688Q60.8079 242.469 62.6595 242.469Q64.4954 242.469 65.3626 243.645Q66.2298 244.82 66.2533 247.273L66.2533 249.148ZM64.8079 247.172Q64.8079 245.336 64.2923 244.496Q63.7767 243.656 62.6595 243.656Q61.5501 243.656 61.0423 244.492Q60.5345 245.328 60.5189 247.062L60.5189 249.375Q60.5189 251.219 61.054 252.098Q61.5892 252.977 62.6751 252.977Q63.7454 252.977 64.265 252.148Q64.7845 251.32 64.8079 249.539L64.8079 247.172ZM73.0148 254L71.5617 254L71.5617 244.367L68.6476 245.438L68.6476 244.125L72.7883 242.57L73.0148 242.57L73.0148 254ZM82.9482 249Q82.4951 249.539 81.8662 249.867Q81.2373 250.195 80.4873 250.195Q79.5029 250.195 78.7725 249.711Q78.042 249.227 77.6436 248.348Q77.2451 247.469 77.2451 246.406Q77.2451 245.266 77.6787 244.352Q78.1123 243.438 78.9092 242.953Q79.7061 242.469 80.7686 242.469Q82.4561 242.469 83.4287 243.73Q84.4014 244.992 84.4014 247.172L84.4014 247.594Q84.4014 250.914 83.0889 252.441Q81.7764 253.969 79.1279 254.008L78.8467 254.008L78.8467 252.789L79.1514 252.789Q80.9404 252.758 81.9014 251.855Q82.8623 250.953 82.9482 249ZM80.7217 249Q81.4482 249 82.0615 248.555Q82.6748 248.109 82.9561 247.453L82.9561 246.875Q82.9561 245.453 82.3389 244.562Q81.7217 243.672 80.7764 243.672Q79.8232 243.672 79.2451 244.402Q78.667 245.133 78.667 246.328Q78.667 247.492 79.2256 248.246Q79.7842 249 80.7217 249Z" fill="#4F4F4F" fill-opacity="1.000000" fill-rule="evenodd"/>
	<path id="2020" d="M162.068 254L154.614 254L154.614 252.961L158.552 248.586Q159.427 247.594 159.759 246.973Q160.091 246.352 160.091 245.688Q160.091 244.797 159.552 244.227Q159.013 243.656 158.114 243.656Q157.036 243.656 156.439 244.27Q155.841 244.883 155.841 245.977L154.396 245.977Q154.396 244.406 155.407 243.438Q156.419 242.469 158.114 242.469Q159.7 242.469 160.622 243.301Q161.544 244.133 161.544 245.516Q161.544 247.195 159.404 249.516L156.357 252.82L162.068 252.82L162.068 254ZM170.892 249.148Q170.892 251.688 170.024 252.922Q169.157 254.156 167.314 254.156Q165.493 254.156 164.618 252.949Q163.743 251.742 163.712 249.344L163.712 247.414Q163.712 244.906 164.579 243.688Q165.446 242.469 167.298 242.469Q169.134 242.469 170.001 243.645Q170.868 244.82 170.892 247.273L170.892 249.148ZM169.446 247.172Q169.446 245.336 168.931 244.496Q168.415 243.656 167.298 243.656Q166.189 243.656 165.681 244.492Q165.173 245.328 165.157 247.062L165.157 249.375Q165.157 251.219 165.692 252.098Q166.228 252.977 167.314 252.977Q168.384 252.977 168.903 252.148Q169.423 251.32 169.446 249.539L169.446 247.172ZM180.356 254L172.903 254L172.903 252.961L176.841 248.586Q177.716 247.594 178.048 246.973Q178.38 246.352 178.38 245.688Q178.38 244.797 177.841 244.227Q177.302 243.656 176.403 243.656Q175.325 243.656 174.727 244.27Q174.13 244.883 174.13 245.977L172.684 245.977Q172.684 244.406 173.696 243.438Q174.708 242.469 176.403 242.469Q177.989 242.469 178.911 243.301Q179.833 244.133 179.833 245.516Q179.833 247.195 177.692 249.516L174.645 252.82L180.356 252.82L180.356 254ZM189.18 249.148Q189.18 251.688 188.313 252.922Q187.446 254.156 185.602 254.156Q183.782 254.156 182.907 252.949Q182.032 251.742 182.001 249.344L182.001 247.414Q182.001 244.906 182.868 243.688Q183.735 242.469 185.587 242.469Q187.423 242.469 188.29 243.645Q189.157 244.82 189.18 247.273L189.18 249.148ZM187.735 247.172Q187.735 245.336 187.219 244.496Q186.704 243.656 185.587 243.656Q184.477 243.656 183.969 244.492Q183.462 245.328 183.446 247.062L183.446 249.375Q183.446 251.219 183.981 252.098Q184.516 252.977 185.602 252.977Q186.673 252.977 187.192 252.148Q187.712 251.32 187.735 249.539L187.735 247.172Z" fill="#4F4F4F" fill-opacity="1.000000" fill-rule="evenodd"/>
	<path id="2021" d="M265.398 254L257.945 254L257.945 252.961L261.883 248.586Q262.758 247.594 263.09 246.973Q263.422 246.352 263.422 245.688Q263.422 244.797 262.883 244.227Q262.344 243.656 261.445 243.656Q260.367 243.656 259.769 244.27Q259.172 244.883 259.172 245.977L257.726 245.977Q257.726 244.406 258.738 243.438Q259.75 242.469 261.445 242.469Q263.031 242.469 263.953 243.301Q264.875 244.133 264.875 245.516Q264.875 247.195 262.734 249.516L259.687 252.82L265.398 252.82L265.398 254ZM274.222 249.148Q274.222 251.688 273.355 252.922Q272.488 254.156 270.644 254.156Q268.824 254.156 267.949 252.949Q267.074 251.742 267.043 249.344L267.043 247.414Q267.043 244.906 267.91 243.688Q268.777 242.469 270.629 242.469Q272.464 242.469 273.332 243.645Q274.199 244.82 274.222 247.273L274.222 249.148ZM272.777 247.172Q272.777 245.336 272.261 244.496Q271.746 243.656 270.629 243.656Q269.519 243.656 269.011 244.492Q268.504 245.328 268.488 247.062L268.488 249.375Q268.488 251.219 269.023 252.098Q269.558 252.977 270.644 252.977Q271.714 252.977 272.234 252.148Q272.754 251.32 272.777 249.539L272.777 247.172ZM283.687 254L276.234 254L276.234 252.961L280.171 248.586Q281.046 247.594 281.378 246.973Q281.71 246.352 281.71 245.688Q281.71 244.797 281.171 244.227Q280.632 243.656 279.734 243.656Q278.656 243.656 278.058 244.27Q277.46 244.883 277.46 245.977L276.015 245.977Q276.015 244.406 277.027 243.438Q278.038 242.469 279.734 242.469Q281.32 242.469 282.242 243.301Q283.164 244.133 283.164 245.516Q283.164 247.195 281.023 249.516L277.976 252.82L283.687 252.82L283.687 254ZM290.128 254L288.675 254L288.675 244.367L285.761 245.438L285.761 244.125L289.902 242.57L290.128 242.57L290.128 254Z" fill="#4F4F4F" fill-opacity="1.000000" fill-rule="evenodd"/>
	<path id="2022" d="M371.345 254L363.892 254L363.892 252.961L367.829 248.586Q368.704 247.594 369.036 246.973Q369.368 246.352 369.368 245.688Q369.368 244.797 368.829 244.227Q368.29 243.656 367.392 243.656Q366.313 243.656 365.716 244.27Q365.118 244.883 365.118 245.977L363.673 245.977Q363.673 244.406 364.685 243.438Q365.696 242.469 367.392 242.469Q368.978 242.469 369.899 243.301Q370.821 244.133 370.821 245.516Q370.821 247.195 368.681 249.516L365.634 252.82L371.345 252.82L371.345 254ZM380.169 249.148Q380.169 251.688 379.302 252.922Q378.434 254.156 376.591 254.156Q374.77 254.156 373.895 252.949Q373.02 251.742 372.989 249.344L372.989 247.414Q372.989 244.906 373.856 243.688Q374.723 242.469 376.575 242.469Q378.411 242.469 379.278 243.645Q380.145 244.82 380.169 247.273L380.169 249.148ZM378.723 247.172Q378.723 245.336 378.208 244.496Q377.692 243.656 376.575 243.656Q375.466 243.656 374.958 244.492Q374.45 245.328 374.434 247.062L374.434 249.375Q374.434 251.219 374.97 252.098Q375.505 252.977 376.591 252.977Q377.661 252.977 378.181 252.148Q378.7 251.32 378.723 249.539L378.723 247.172ZM389.633 254L382.18 254L382.18 252.961L386.118 248.586Q386.993 247.594 387.325 246.973Q387.657 246.352 387.657 245.688Q387.657 244.797 387.118 244.227Q386.579 243.656 385.68 243.656Q384.602 243.656 384.005 244.27Q383.407 244.883 383.407 245.977L381.962 245.977Q381.962 244.406 382.973 243.438Q383.985 242.469 385.68 242.469Q387.266 242.469 388.188 243.301Q389.11 244.133 389.11 245.516Q389.11 247.195 386.969 249.516L383.923 252.82L389.633 252.82L389.633 254ZM398.778 254L391.325 254L391.325 252.961L395.262 248.586Q396.137 247.594 396.469 246.973Q396.801 246.352 396.801 245.688Q396.801 244.797 396.262 244.227Q395.723 243.656 394.825 243.656Q393.747 243.656 393.149 244.27Q392.551 244.883 392.551 245.977L391.106 245.977Q391.106 244.406 392.118 243.438Q393.129 242.469 394.825 242.469Q396.411 242.469 397.333 243.301Q398.254 244.133 398.254 245.516Q398.254 247.195 396.114 249.516L393.067 252.82L398.778 252.82L398.778 254Z" fill="#4F4F4F" fill-opacity="1.000000" fill-rule="evenodd"/>
	<path id="200" d="M459.844 171L452.391 171L452.391 169.961L456.328 165.586Q457.203 164.594 457.536 163.973Q457.868 163.352 457.868 162.688Q457.868 161.797 457.328 161.227Q456.789 160.656 455.891 160.656Q454.813 160.656 454.215 161.27Q453.618 161.883 453.618 162.977L452.172 162.977Q452.172 161.406 453.184 160.438Q454.196 159.469 455.891 159.469Q457.477 159.469 458.399 160.301Q459.321 161.133 459.321 162.516Q459.321 164.195 457.18 166.516L454.133 169.82L459.844 169.82L459.844 171ZM468.668 166.148Q468.668 168.688 467.801 169.922Q466.934 171.156 465.09 171.156Q463.27 171.156 462.395 169.949Q461.52 168.742 461.488 166.344L461.488 164.414Q461.488 161.906 462.356 160.688Q463.223 159.469 465.074 159.469Q466.91 159.469 467.778 160.645Q468.645 161.82 468.668 164.273L468.668 166.148ZM467.223 164.172Q467.223 162.336 466.707 161.496Q466.192 160.656 465.074 160.656Q463.965 160.656 463.457 161.492Q462.949 162.328 462.934 164.062L462.934 166.375Q462.934 168.219 463.469 169.098Q464.004 169.977 465.09 169.977Q466.16 169.977 466.68 169.148Q467.199 168.32 467.223 166.539L467.223 164.172ZM477.813 166.148Q477.813 168.688 476.945 169.922Q476.078 171.156 474.234 171.156Q472.414 171.156 471.539 169.949Q470.664 168.742 470.633 166.344L470.633 164.414Q470.633 161.906 471.5 160.688Q472.367 159.469 474.219 159.469Q476.055 159.469 476.922 160.645Q477.789 161.82 477.813 164.273L477.813 166.148ZM476.367 164.172Q476.367 162.336 475.852 161.496Q475.336 160.656 474.219 160.656Q473.109 160.656 472.602 161.492Q472.094 162.328 472.078 164.062L472.078 166.375Q472.078 168.219 472.613 169.098Q473.148 169.977 474.234 169.977Q475.305 169.977 475.824 169.148Q476.344 168.32 476.367 166.539L476.367 164.172Z" fill="#4F4F4F" fill-opacity="1.000000" fill-rule="evenodd"/>
	<path id="0" d="M459.524 226.148Q459.524 228.688 458.657 229.922Q457.789 231.156 455.946 231.156Q454.125 231.156 453.25 229.949Q452.375 228.742 452.344 226.344L452.344 224.414Q452.344 221.906 453.211 220.688Q454.078 219.469 455.93 219.469Q457.766 219.469 458.633 220.645Q459.5 221.82 459.524 224.273L459.524 226.148ZM458.078 224.172Q458.078 222.336 457.563 221.496Q457.047 220.656 455.93 220.656Q454.821 220.656 454.313 221.492Q453.805 222.328 453.789 224.062L453.789 226.375Q453.789 228.219 454.325 229.098Q454.86 229.977 455.946 229.977Q457.016 229.977 457.536 229.148Q458.055 228.32 458.078 226.539L458.078 224.172Z" fill="#4F4F4F" fill-opacity="1.000000" fill-rule="evenodd"/>
	<path id="Vector" d="M386.619 60L440.982 35L440.982 133L1.5 133L1.5 116.5L112.515 109L181.184 73.5L211.513 67.5L237.264 60L348.851 60L386.619 60Z" fill="#F4A26C" fill-opacity="1.000000" fill-rule="nonzero"/>
	<path id="Vector" d="M386.619 60L348.851 60L237.264 60L211.513 67.5L181.184 73.5L112.515 109L1.5 116.5L1.5 133L440.982 133L440.982 35L386.619 60Z" stroke="#FFFFFF" stroke-opacity="1.000000" stroke-width="3.000000"/>
	<path id="Vector" d="M386.619 105.5L440.982 99L440.982 178.5L1.5 219L1.5 129.5L111.37 119L176.606 129.5L211.513 113L241.269 119L347.706 119L386.619 105.5Z" fill="#3FAEA3" fill-opacity="1.000000" fill-rule="nonzero"/>
	<path id="Vector" d="M386.619 105.5L347.706 119L241.269 119L211.513 113L176.606 129.5L111.37 119L1.5 129.5L1.5 219L440.982 178.5L440.982 99L386.619 105.5Z" stroke="#FFFFFF" stroke-opacity="1.000000" stroke-width="3.000000"/>
	<path id="Vector" d="M385.474 147.153L440.982 138L440.982 228L1.5 228L1.5 214.78L111.37 197.492L174.889 197.492L211.513 161.39L248.136 179.186L347.706 167.492L385.474 147.153Z" fill="#914DF0" fill-opacity="1.000000" fill-rule="nonzero"/>
	<path id="Vector" d="M385.474 147.153L347.706 167.492L248.136 179.186L211.513 161.39L174.889 197.492L111.37 197.492L1.5 214.78L1.5 228L440.982 228L440.982 138L385.474 147.153Z" stroke="#FFFFFF" stroke-opacity="1.000000" stroke-width="3.000000"/>
	<line id="Line" x1="1.503906" y1="226.000000" x2="440.985718" y2="226.986206" stroke="#8E8E93" stroke-opacity="1.000000" stroke-width="2.000000" stroke-dasharray="0.000000,0.000000"/>
	<path id="Total" d="M460.625 3.85938L456.969 3.85938L456.969 14L455.477 14L455.477 3.85938L451.828 3.85938L451.828 2.625L460.625 2.625L460.625 3.85938ZM461.09 9.69531Q461.09 8.45312 461.578 7.46094Q462.067 6.46875 462.938 5.92969Q463.809 5.39062 464.926 5.39062Q466.653 5.39062 467.719 6.58594Q468.785 7.78125 468.785 9.76562L468.785 9.86719Q468.785 11.1016 468.313 12.082Q467.84 13.0625 466.961 13.6094Q466.082 14.1562 464.942 14.1562Q463.223 14.1562 462.156 12.9609Q461.09 11.7656 461.09 9.79688L461.09 9.69531ZM462.543 9.86719Q462.543 11.2734 463.196 12.125Q463.848 12.9766 464.942 12.9766Q466.043 12.9766 466.692 12.1133Q467.34 11.25 467.34 9.69531Q467.34 8.30469 466.68 7.44141Q466.02 6.57812 464.926 6.57812Q463.856 6.57812 463.199 7.42969Q462.543 8.28125 462.543 9.86719ZM472.719 3.5L472.719 5.54688L474.297 5.54688L474.297 6.66406L472.719 6.66406L472.719 11.9062Q472.719 12.4141 472.93 12.668Q473.141 12.9219 473.648 12.9219Q473.898 12.9219 474.336 12.8281L474.336 14Q473.766 14.1562 473.227 14.1562Q472.258 14.1562 471.766 13.5703Q471.273 12.9844 471.273 11.9062L471.273 6.66406L469.734 6.66406L469.734 5.54688L471.273 5.54688L471.273 3.5L472.719 3.5ZM481.363 14Q481.238 13.75 481.16 13.1094Q480.152 14.1562 478.754 14.1562Q477.504 14.1562 476.703 13.4492Q475.902 12.7422 475.902 11.6562Q475.902 10.3359 476.906 9.60547Q477.91 8.875 479.73 8.875L481.137 8.875L481.137 8.21094Q481.137 7.45312 480.684 7.00391Q480.23 6.55469 479.348 6.55469Q478.574 6.55469 478.051 6.94531Q477.527 7.33594 477.527 7.89062L476.074 7.89062Q476.074 7.25781 476.523 6.66797Q476.973 6.07812 477.742 5.73438Q478.512 5.39062 479.434 5.39062Q480.894 5.39062 481.723 6.12109Q482.551 6.85156 482.582 8.13281L482.582 12.0234Q482.582 13.1875 482.879 13.875L482.879 14L481.363 14ZM478.965 12.8984Q479.644 12.8984 480.254 12.5469Q480.863 12.1953 481.137 11.6328L481.137 9.89844L480.004 9.89844Q477.348 9.89844 477.348 11.4531Q477.348 12.1328 477.801 12.5156Q478.254 12.8984 478.965 12.8984ZM486.578 14L485.133 14L485.133 2L486.578 2L486.578 14Z" fill="#4F4F4F" fill-opacity="1.000000" fill-rule="evenodd"/>
	<line id="Line 2" x1="66.591187" y1="227.000000" x2="66.591187" y2="235.000000" stroke="#8E8E93" stroke-opacity="1.000000" stroke-width="2.000000"/>
	<line id="Line 2.1" x1="171.229736" y1="227.000000" x2="171.229736" y2="235.000000" stroke="#8E8E93" stroke-opacity="1.000000" stroke-width="2.000000"/>
	<line id="Line 2.3" x1="275.868164" y1="227.000000" x2="275.868164" y2="235.000000" stroke="#8E8E93" stroke-opacity="1.000000" stroke-width="2.000000"/>
	<line id="Line 2.2" x1="380.506714" y1="227.000000" x2="380.506714" y2="235.000000" stroke="#8E8E93" stroke-opacity="1.000000" stroke-width="2.000000"/>
</svg>
