<svg width="264.026001" height="264.000000" viewBox="0 0 264.026 264" fill="none" xmlns="http://www.w3.org/2000/svg" xmlns:xlink="http://www.w3.org/1999/xlink">
	<desc>
			Created with Pixso.
	</desc>
	<defs/>
	<path id="Ellipse" d="M132.004 0C107.001 0 83.6094 6.97205 63.6672 19.0663L82.8016 50.6877C98.2036 41.3678 115.212 36.9434 132.004 36.96L132.004 0Z" fill="#EB5757" fill-opacity="1.000000" fill-rule="evenodd"/>
	<path id="Ellipse" d="M62.071 20.0477C44.205 31.2081 29.9308 45.96 19.6038 62.7896L51.0759 82.1685C59.0283 69.2534 69.5833 58.9077 81.6523 51.3943L62.071 20.0477Z" fill="#EAAB00" fill-opacity="1.000000" fill-rule="evenodd"/>
	<path id="Ellipse" d="M18.6783 64.3154C0.976318 93.9543 -3.73926 127.772 2.82312 159.133L38.9939 151.536C33.8845 127.21 38.5957 103.081 50.4097 83.2671L18.6783 64.3154Z" fill="#A84069" fill-opacity="1.000000" fill-rule="evenodd"/>
	<path id="Ellipse" d="M3.1781 160.771C9.58289 189.449 24.9009 213.857 45.5515 231.749L69.7583 203.819C53.7706 189.963 43.5345 171.916 39.2495 152.715L3.1781 160.771Z" fill="#00B2A9" fill-opacity="1.000000" fill-rule="evenodd"/>
	<path id="Ellipse" d="M46.8809 232.886C71.0483 253.277 100.438 263.485 129.808 263.982L130.423 227.027C107.659 226.648 86.8842 218.272 70.7155 204.638L46.8809 232.886Z" fill="#2D9CDB" fill-opacity="1.000000" fill-rule="evenodd"/>
	<path id="Ellipse" d="M131.644 264C163.1 264.085 192.036 253.129 214.8 234.805L191.617 206.02C173.979 220.225 152.786 227.092 131.745 227.04L131.644 264Z" fill="#BB6BD9" fill-opacity="1.000000" fill-rule="evenodd"/>
	<path id="Ellipse" d="M216.327 233.557C237.66 215.843 251.992 192.799 258.993 167.957C266.565 141.285 265.33 114.175 257.054 89.7317L222.04 101.567C228.433 120.48 228.52 140.019 223.435 157.893C218.009 177.104 207.018 193.258 192.717 205.121L216.327 233.557Z" fill="#4CD964" fill-opacity="1.000000" fill-rule="evenodd"/>
	<path id="Ellipse" d="M256.481 88.0723C247.168 61.6825 230.29 40.1025 209.14 24.9069C186.448 8.53748 160.274 0.44751 134.24 0.0189209L133.614 36.9736C153.76 37.3148 172.347 43.9191 187.548 54.8972C203.902 66.6603 215.397 82.6903 221.627 100.372L256.481 88.0723Z" fill="#8D43FF" fill-opacity="1.000000" fill-rule="evenodd"/>
</svg>
