<svg width="20.000000" height="20.000000" viewBox="0 0 20 20" fill="none" xmlns="http://www.w3.org/2000/svg" xmlns:xlink="http://www.w3.org/1999/xlink">
	<desc>
			Created with Pixso.
	</desc>
	<defs/>
	<path id="Vector" d="M14.4008 2.07227C14.3043 1.97583 14.1479 1.97583 14.0514 2.07227L11.6725 4.45142L15.5487 8.32764L17.9276 5.94849C18.0242 5.85205 18.0242 5.6958 17.9276 5.59937L14.4008 2.07227ZM14.1345 9.7417L10.2583 5.86548L2.47412 13.6497C2.4325 13.6914 2.4071 13.7466 2.40259 13.8054L2.08655 17.9136L6.1947 17.5974C6.25342 17.593 6.30872 17.5676 6.35034 17.5259L14.1345 9.7417ZM12.6372 0.658203C13.5148 -0.219482 14.9374 -0.219482 15.8149 0.658203L19.3419 4.18506C20.2194 5.0625 20.2194 6.48535 19.3419 7.36279L7.76465 18.9399C7.38525 19.3193 6.88293 19.5505 6.34802 19.5916L1.07666 19.9971C0.785645 20.0195 0.499268 19.9136 0.292847 19.707C0.0864258 19.5007 -0.0194092 19.2144 0.00292969 18.9233L0.408447 13.6519C0.449585 13.1172 0.680664 12.6147 1.05994 12.2354L12.6372 0.658203Z" fill="#00B2A9" fill-opacity="1.000000" fill-rule="evenodd"/>
</svg>
