<svg width="36.000000" height="31.000000" viewBox="0 0 36 31" fill="none" xmlns="http://www.w3.org/2000/svg" xmlns:xlink="http://www.w3.org/1999/xlink">
	<desc>
			Created with Pixso.
	</desc>
	<defs/>
	<path id="Vector" d="M35.41 15C35.41 6.25 27.38 -0.84 17.5 -0.84C7.6 -0.84 -0.42 6.25 -0.42 15C-0.42 22.66 5.74 29.04 13.91 30.51L13.91 19.75L10.33 19.75L10.33 15L13.91 15L13.91 11.04C13.91 7.98 16.72 5.5 20.18 5.5L24.66 5.5L24.66 10.25L21.08 10.25C20.09 10.25 19.29 10.96 19.29 11.83L19.29 15L24.66 15L24.66 19.75L19.29 19.75L19.29 30.75C28.33 29.96 35.41 23.21 35.41 15Z" fill="#FB9300" fill-opacity="1.000000" fill-rule="nonzero"/>
</svg>
