<svg width="30.000000" height="30.000000" viewBox="0 0 30 30" fill="none" xmlns="http://www.w3.org/2000/svg" xmlns:xlink="http://www.w3.org/1999/xlink">
	<desc>
			Created with Pixso.
	</desc>
	<defs/>
	<path id="Vector" d="M8.26 -0.54C9.87 -0.61 10.39 -0.63 14.5 -0.63C18.6 -0.63 19.12 -0.61 20.73 -0.54C22.34 -0.47 23.44 -0.21 24.4 0.16C25.41 0.54 26.33 1.14 27.08 1.91C27.85 2.66 28.45 3.58 28.83 4.59C29.2 5.55 29.46 6.65 29.53 8.26C29.6 9.87 29.62 10.39 29.62 14.5C29.62 18.6 29.6 19.12 29.53 20.73C29.46 22.34 29.2 23.44 28.83 24.4C28.45 25.41 27.85 26.33 27.08 27.08C26.33 27.85 25.41 28.45 24.4 28.83C23.44 29.2 22.34 29.46 20.73 29.53C19.12 29.6 18.6 29.62 14.5 29.62C10.39 29.62 9.87 29.6 8.26 29.53C6.65 29.46 5.55 29.2 4.59 28.83C3.58 28.45 2.66 27.85 1.91 27.08C1.14 26.33 0.54 25.41 0.16 24.4C-0.21 23.44 -0.46 22.34 -0.54 20.73C-0.61 19.12 -0.63 18.6 -0.63 14.5C-0.63 10.39 -0.61 9.87 -0.54 8.26C-0.47 6.65 -0.21 5.55 0.16 4.59C0.54 3.58 1.14 2.66 1.91 1.91C2.66 1.14 3.58 0.54 4.59 0.16C5.55 -0.21 6.65 -0.47 8.26 -0.54L8.26 -0.54ZM20.61 2.18C19.01 2.11 18.53 2.09 14.5 2.09C10.46 2.09 9.98 2.11 8.38 2.18C6.91 2.25 6.11 2.5 5.57 2.7C4.87 2.98 4.36 3.31 3.83 3.83C3.33 4.32 2.95 4.92 2.7 5.57C2.5 6.11 2.25 6.91 2.18 8.38C2.11 9.98 2.1 10.46 2.1 14.5C2.1 18.53 2.11 19.01 2.18 20.61C2.25 22.08 2.5 22.88 2.7 23.42C2.95 24.07 3.33 24.67 3.83 25.16C4.32 25.66 4.92 26.04 5.57 26.29C6.11 26.49 6.91 26.74 8.38 26.81C9.98 26.88 10.46 26.9 14.5 26.9C18.53 26.9 19.01 26.88 20.61 26.81C22.08 26.74 22.88 26.49 23.42 26.29C24.12 26.01 24.63 25.68 25.16 25.16C25.66 24.67 26.04 24.07 26.29 23.42C26.49 22.88 26.74 22.08 26.81 20.61C26.88 19.01 26.89 18.53 26.89 14.5C26.89 10.46 26.88 9.98 26.81 8.38C26.74 6.91 26.49 6.11 26.29 5.57C26.01 4.87 25.68 4.36 25.16 3.83C24.67 3.33 24.07 2.95 23.42 2.7C22.88 2.5 22.08 2.25 20.61 2.18ZM12.56 19.16C13.64 19.61 14.84 19.67 15.96 19.33C17.08 18.99 18.05 18.27 18.7 17.3C19.35 16.33 19.64 15.16 19.52 14C19.41 12.84 18.89 11.75 18.06 10.93C17.54 10.4 16.9 10 16.2 9.75C15.49 9.49 14.74 9.4 14 9.47C13.26 9.55 12.54 9.78 11.9 10.17C11.26 10.55 10.71 11.07 10.3 11.69C9.89 12.31 9.61 13.02 9.5 13.75C9.39 14.49 9.45 15.25 9.67 15.96C9.88 16.67 10.26 17.33 10.76 17.88C11.26 18.44 11.87 18.87 12.56 19.16ZM9 9C9.72 8.28 10.58 7.7 11.52 7.31C12.46 6.92 13.47 6.72 14.5 6.72C15.52 6.72 16.53 6.92 17.47 7.31C18.41 7.7 19.27 8.28 19.99 9C20.71 9.72 21.29 10.58 21.68 11.52C22.07 12.46 22.27 13.47 22.27 14.5C22.27 15.52 22.07 16.53 21.68 17.47C21.29 18.41 20.71 19.27 19.99 19.99C18.53 21.45 16.56 22.27 14.5 22.27C12.43 22.27 10.46 21.45 9 19.99C7.54 18.53 6.72 16.56 6.72 14.5C6.72 12.43 7.54 10.46 9 9ZM23.99 7.88C24.17 7.71 24.32 7.51 24.41 7.28C24.51 7.06 24.57 6.81 24.57 6.57C24.57 6.32 24.53 6.08 24.44 5.85C24.34 5.62 24.21 5.41 24.03 5.24C23.86 5.07 23.65 4.93 23.42 4.84C23.2 4.75 22.95 4.7 22.71 4.7C22.46 4.71 22.22 4.76 21.99 4.86C21.77 4.96 21.56 5.1 21.39 5.28C21.07 5.63 20.89 6.09 20.89 6.57C20.9 7.05 21.09 7.5 21.43 7.84C21.77 8.18 22.23 8.37 22.71 8.38C23.18 8.39 23.65 8.21 23.99 7.88Z" fill="#FFFFFF" fill-opacity="1.000000" fill-rule="evenodd"/>
</svg>
