
<svg width="20.000000" height="20.000000" viewBox="0 0 20 20" fill="none" xmlns="http://www.w3.org/2000/svg" xmlns:xlink="http://www.w3.org/1999/xlink">
	<desc>
			Created with Pixso.
	</desc>
	<defs/>
	<path id="Vector" d="M19.4099 9.57996L10.4099 0.579956C10.05 0.219971 9.55005 0 9 0L2 0C0.899902 0 0 0.900024 0 2L0 9C0 9.55005 0.219971 10.05 0.590088 10.42L9.59009 19.42C9.94995 19.78 10.45 20 11 20C11.55 20 12.05 19.78 12.4099 19.41L19.4099 12.41C19.78 12.05 20 11.55 20 11C20 10.45 19.77 9.93994 19.4099 9.57996ZM3.5 5C2.66992 5 2 4.32996 2 3.5C2 2.67004 2.66992 2 3.5 2C4.33008 2 5 2.67004 5 3.5C5 4.32996 4.33008 5 3.5 5Z" fill="#F2F2F2" fill-opacity="1.000000" fill-rule="nonzero"/>
</svg>
