<svg width="19.500000" height="19.500000" viewBox="0 0 19.5 19.5" fill="none" xmlns="http://www.w3.org/2000/svg" xmlns:xlink="http://www.w3.org/1999/xlink">
	<desc>
			Created with Pixso.
	</desc>
	<defs/>
	<path id="Vector" d="M18.75 2.25L0.75 2.25C0.337402 2.25 0 2.58752 0 3L0 15C0 15.4125 0.323486 15.75 0.740723 15.75L18.75 15.75C19.1626 15.75 19.5 15.4125 19.5 15L19.5 3C19.5 2.58752 19.1626 2.25 18.75 2.25ZM17.25 13.5L2.25 13.5L2.25 4.5L17.25 4.5L17.25 13.5ZM1.5 19.5L4.17188 19.5L5.22656 16.5L2.58276 16.5L1.5 19.5ZM10.8469 0L8.65308 0L8.11401 1.5L11.386 1.5L10.8469 0ZM15.3281 19.5L18 19.5L16.9219 16.5L14.2734 16.5L15.3281 19.5ZM8.625 16.5L10.875 16.5L10.875 18L8.625 18L8.625 16.5Z" fill="#F2F2F2" fill-opacity="1.000000" fill-rule="nonzero"/>
</svg>
