<svg width="19.993408" height="18.000000" viewBox="0 0 19.9934 18" fill="none" xmlns="http://www.w3.org/2000/svg" xmlns:xlink="http://www.w3.org/1999/xlink">
	<desc>
			Created with Pixso.
	</desc>
	<defs/>
	<path id="Vector" d="M19.8945 5.89001L18.8447 1.52002C18.6248 0.619995 17.8447 0 16.9346 0L3.04468 0C2.14453 0 1.35474 0.630005 1.14453 1.52002L0.0947266 5.89001C-0.145264 6.91003 0.074707 7.94995 0.7146 8.77002C0.794678 8.88 0.904541 8.95996 0.994629 9.06006L0.994629 16C0.994629 17.1 1.89453 18 2.99463 18L16.9946 18C18.0947 18 18.9946 17.1 18.9946 16L18.9946 9.06006C19.0847 8.96997 19.1946 8.88 19.2747 8.78003C19.9146 7.95996 20.1445 6.91003 19.8945 5.89001ZM16.9045 1.98999L17.9546 6.35999C18.0547 6.78003 17.9646 7.19995 17.7046 7.53003C17.5647 7.70996 17.2646 8 16.7646 8C16.1545 8 15.6248 7.51001 15.5547 6.85999L14.9746 2L16.9045 1.98999ZM10.9946 2L12.9546 2L13.4946 6.52002C13.5447 6.91003 13.4246 7.30005 13.1646 7.58997C12.9446 7.84998 12.6248 8 12.2146 8C11.5447 8 10.9946 7.41003 10.9946 6.68994L10.9946 2ZM6.48462 6.52002L7.03467 2L8.99463 2L8.99463 6.68994C8.99463 7.41003 8.44458 8 7.70459 8C7.36475 8 7.05469 7.84998 6.8147 7.58997C6.5647 7.30005 6.44458 6.91003 6.48462 6.52002ZM2.03467 6.35999L3.04468 2L5.01465 2L4.43457 6.85999C4.35474 7.51001 3.83472 8 3.22461 8C2.73462 8 2.42456 7.70996 2.29468 7.53003C2.02466 7.20996 1.93457 6.78003 2.03467 6.35999ZM2.99463 16L2.99463 9.96997C3.07471 9.97998 3.14453 10 3.22461 10C4.09473 10 4.88452 9.64001 5.4646 9.05005C6.0647 9.65002 6.86475 10 7.77466 10C8.64453 10 9.42456 9.64001 10.0046 9.06995C10.5947 9.64001 11.3945 10 12.2947 10C13.1345 10 13.9346 9.65002 14.5347 9.05005C15.1147 9.64001 15.9045 10 16.7747 10C16.8547 10 16.9246 9.97998 17.0046 9.96997L17.0046 16L2.99463 16Z" fill="#F2F2F2" fill-opacity="1.000000" fill-rule="nonzero"/>
</svg>
