<svg width="18.000000" height="20.000000" viewBox="0 0 18 20" fill="none" xmlns="http://www.w3.org/2000/svg" xmlns:xlink="http://www.w3.org/1999/xlink">
	<desc>
			Created with Pixso.
	</desc>
	<defs/>
	<path id="Vector" d="M16 2L11.8201 2C11.3999 0.839966 10.3 0 9 0C7.69995 0 6.6001 0.839966 6.17993 2L2 2C0.899902 2 0 2.90002 0 4L0 18C0 19.1 0.899902 20 2 20L16 20C17.1001 20 18 19.1 18 18L18 4C18 2.90002 17.1001 2 16 2ZM9 2C9.55005 2 10 2.44995 10 3C10 3.55005 9.55005 4 9 4C8.44995 4 8 3.55005 8 3C8 2.44995 8.44995 2 9 2ZM11 16L4 16L4 14L11 14L11 16ZM14 12L4 12L4 10L14 10L14 12ZM14 8L4 8L4 6L14 6L14 8Z" fill="#F2F2F2" fill-opacity="1.000000" fill-rule="nonzero"/>
</svg>
