<svg width="32.000000" height="24.000000" viewBox="0 0 32 24" fill="none" xmlns="http://www.w3.org/2000/svg" xmlns:xlink="http://www.w3.org/1999/xlink">
	<desc>
			Created with Pixso.
	</desc>
	<defs/>
	<path id="Vector" d="M32 2.02C30.82 2.52 29.55 2.86 28.23 3.01C29.6 2.23 30.62 0.99 31.11 -0.46C29.82 0.27 28.41 0.78 26.94 1.06C25.95 0.05 24.64 -0.61 23.22 -0.84C21.79 -1.06 20.32 -0.83 19.05 -0.18C17.77 0.47 16.76 1.51 16.16 2.76C15.57 4.02 15.42 5.43 15.76 6.78C13.14 6.65 10.59 6 8.26 4.88C5.93 3.75 3.87 2.16 2.22 0.23C1.66 1.16 1.34 2.23 1.34 3.38C1.33 4.41 1.6 5.43 2.11 6.34C2.62 7.25 3.36 8.02 4.26 8.59C3.21 8.56 2.19 8.3 1.28 7.81L1.28 7.89C1.28 9.34 1.81 10.74 2.77 11.86C3.73 12.98 5.06 13.75 6.55 14.04C5.58 14.29 4.57 14.32 3.58 14.14C4 15.39 4.82 16.48 5.92 17.26C7.02 18.04 8.35 18.47 9.72 18.49C7.39 20.24 4.52 21.18 1.56 21.18C1.04 21.18 0.52 21.15 0 21.09C3 22.93 6.49 23.91 10.06 23.91C22.14 23.91 28.74 14.36 28.74 6.08C28.74 5.81 28.73 5.54 28.72 5.27C30 4.38 31.11 3.28 31.99 2.03L32 2.02Z" fill="#FB9300" fill-opacity="1.000000" fill-rule="nonzero"/>
</svg>
