<svg width="60.000000" height="40.000000" viewBox="0 0 60 40" fill="none" xmlns="http://www.w3.org/2000/svg" xmlns:xlink="http://www.w3.org/1999/xlink">
	<desc>
			Created with Pixso.
	</desc>
	<defs/>
	<path id="Vector" d="M48.375 15.1C46.675 6.47498 39.1 0 30 0C22.775 0 16.5 4.09998 13.375 10.1C5.84998 10.9 0 17.275 0 25C0 33.275 6.72498 40 15 40L47.5 40C54.4 40 60 34.4 60 27.5C60 20.9 54.875 15.55 48.375 15.1ZM35 22.5L35 32.5L25 32.5L25 22.5L17.5 22.5L29.125 10.875C29.625 10.375 30.4 10.375 30.9 10.875L42.5 22.5L35 22.5Z" fill="#EC5CF8" fill-opacity="1.000000" fill-rule="nonzero"/>
</svg>
